<?xml version="1.0" encoding="UTF-8" standalone="no"?>
<svg
   xmlns:dc="http://purl.org/dc/elements/1.1/"
   xmlns:cc="http://creativecommons.org/ns#"
   xmlns:rdf="http://www.w3.org/1999/02/22-rdf-syntax-ns#"
   xmlns:svg="http://www.w3.org/2000/svg"
   xmlns="http://www.w3.org/2000/svg"
   xmlns:sodipodi="http://sodipodi.sourceforge.net/DTD/sodipodi-0.dtd"
   xmlns:inkscape="http://www.inkscape.org/namespaces/inkscape"
   inkscape:version="1.0 (4035a4fb49, 2020-05-01)"
   sodipodi:docname="Logo blanco letra - Color Cayena.svg"
   xml:space="preserve"
   style="enable-background:new 0 0 800 800;"
   viewBox="0 0 800 800"
   y="0px"
   x="0px"
   id="Capa_2"
   version="1.1"><metadata
   id="metadata248"><rdf:RDF><cc:Work
       rdf:about=""><dc:format>image/svg+xml</dc:format><dc:type
         rdf:resource="http://purl.org/dc/dcmitype/StillImage" /><dc:title></dc:title></cc:Work></rdf:RDF></metadata><defs
   id="defs246" /><sodipodi:namedview
   inkscape:current-layer="g154"
   inkscape:window-maximized="0"
   inkscape:window-y="0"
   inkscape:window-x="104"
   inkscape:cy="400"
   inkscape:cx="400"
   inkscape:zoom="1.03375"
   showgrid="false"
   id="namedview244"
   inkscape:window-height="1040"
   inkscape:window-width="1260"
   inkscape:pageshadow="2"
   inkscape:pageopacity="0"
   guidetolerance="10"
   gridtolerance="10"
   objecttolerance="10"
   borderopacity="1"
   bordercolor="#666666"
   pagecolor="#ffffff" />
<style
   id="style130"
   type="text/css">
	.st0{fill:#212121;}
	.st1{fill:#2BAF56;}
	.st2{opacity:0.2;fill:url(#SVGID_1_);}
	.st3{opacity:0.2;fill:url(#SVGID_2_);}
	.st4{fill:url(#SVGID_3_);}
	.st5{fill:url(#SVGID_4_);}
	.st6{fill:url(#SVGID_5_);}
	.st7{fill:#FFD600;}
	.st8{fill:#B71C1C;}
</style>
<g
   id="g156">
	<g
   id="g154">
		<path
   style="fill:#ffffff"
   id="path132"
   d="M218.56,594.42c0-21.93,18.31-40.34,40.19-40.34c10.1,0.15,19.42,4.44,27.05,11.88l-7.1,9.61    c-5.46-5.46-12.56-9.08-20.19-9.08c-14.11,0-27.58,12.37-27.58,27.97c0,15.7,13.67,27.83,27.63,27.83    c7.97,0,14.83-3.96,20.19-9.28l7.05,9.86c-6.71,6.62-15.27,11.69-26.86,11.69C236.87,634.57,218.56,616.41,218.56,594.42z"
   class="st0" />
		<path
   style="fill:#ffffff"
   id="path134"
   d="M288.48,594.47c0-22.22,18.07-40.39,40.24-40.39c22.13,0,40.29,18.17,40.29,40.39    c0,22.03-18.16,40.1-40.34,40.1C306.54,634.57,288.48,616.5,288.48,594.47z M356.64,594.38c0-15.41-12.61-27.97-27.97-27.97    c-15.36,0-27.88,12.56-27.88,27.97c0,15.31,12.51,27.83,27.88,27.83C344.03,622.2,356.64,609.69,356.64,594.38z"
   class="st0" />
		<path
   style="fill:#ffffff"
   id="path136"
   d="M427.19,621.14v12.17h-46.96v-77.88h12.22v65.7H427.19z"
   class="st0" />
		<path
   style="fill:#ffffff"
   id="path138"
   d="M429.95,594.47c0-22.22,18.07-40.39,40.24-40.39c22.13,0,40.29,18.17,40.29,40.39    c0,22.03-18.16,40.1-40.34,40.1C448.01,634.57,429.95,616.5,429.95,594.47z M498.11,594.38c0-15.41-12.61-27.97-27.97-27.97    s-27.88,12.56-27.88,27.97c0,15.31,12.51,27.83,27.88,27.83S498.11,609.69,498.11,594.38z"
   class="st0" />
		<path
   style="fill:#ffffff"
   id="path140"
   d="M564.5,633.31l-20.97-30.14h-9.57v30.14h-12.22l-0.05-77.88h24.2c14.49,0,26.38,11.16,26.38,25.02    c0,10.05-6.47,18.79-15.41,21.69l22.66,31.16H564.5z M546.19,593.02c7.34,0.05,13.48-5.89,13.48-12.85    c0-7.25-6.23-12.61-13.48-12.61h-12.27v25.46H546.19z"
   class="st0" />
		<path
   style="fill:#ffffff"
   id="path142"
   d="M183.12,694.42c0-21.93,18.31-40.34,40.19-40.34c10.1,0.15,19.42,4.44,27.05,11.88l-7.1,9.61    c-5.46-5.46-12.56-9.08-20.19-9.08c-14.11,0-27.58,12.37-27.58,27.97c0,15.7,13.67,27.83,27.63,27.83    c7.97,0,14.83-3.96,20.19-9.28l7.05,9.86c-6.71,6.62-15.27,11.69-26.86,11.69C201.43,734.57,183.12,716.41,183.12,694.42z"
   class="st0" />
		<path
   style="fill:#ffffff"
   id="path144"
   d="M314.07,721.48h-36.86l-5.31,11.84h-13.24l36.62-79.47H296l36.62,79.47h-13.24L314.07,721.48z M309.34,710.99    l-13.67-30.43l-13.72,30.43H309.34z"
   class="st0" />
		<path
   style="fill:#ffffff"
   id="path146"
   d="M348.79,700.03l-25.85-44.59h13.77l18.12,31.01l18.16-31.01h13.77l-25.85,44.59v33.29h-12.13V700.03z"
   class="st0" />
		<path
   style="fill:#ffffff"
   id="path148"
   d="M412.58,667.47v19.95h29.47v12.17h-29.47v21.55h34.16v12.17h-46.38v-77.88h46.38v12.03H412.58z"
   class="st0" />
		<path
   style="fill:#ffffff"
   id="path150"
   d="M527.01,655.24v79.42h-0.58l-49.81-52.03v50.77H464.4v-79.32h0.63l49.71,51.93v-50.77H527.01z"
   class="st0" />
		<path
   style="fill:#ffffff"
   id="path152"
   d="M595.98,721.48h-36.86l-5.31,11.84h-13.24l36.62-79.47h0.72l36.62,79.47h-13.24L595.98,721.48z     M591.24,710.99l-13.67-30.43l-13.72,30.43H591.24z"
   class="st0" />
	</g>
</g>
<g
   id="g239">
	<g
   id="g217">
		<path
   id="path158"
   d="M517.95,229.05c-5.27,1.83-10.47,3.84-15.57,6.01c-9.95,4.23-19.57,9.09-28.8,14.53    c-1.35,0.79-2.69,1.6-4.02,2.42c-0.55,0.33-1.1,0.68-1.65,1.03c-0.63,0.39-1.25,0.78-1.87,1.18c-1.87,1.19-3.73,2.4-5.56,3.64    c-0.57,0.39-1.15,0.78-1.72,1.17c-0.87,0.6-1.73,1.2-2.59,1.8c-0.68,0.48-1.37,0.97-2.04,1.46c-0.7,0.5-1.39,1.01-2.08,1.52    c-0.69,0.5-1.38,1.02-2.07,1.54c-0.69,0.51-1.37,1.03-2.05,1.56c-0.68,0.52-1.36,1.04-2.04,1.58c-1.01,0.79-2.02,1.6-3.02,2.42    c-0.99,0.8-1.98,1.61-2.96,2.43c-0.01,0.01-0.01,0.01-0.02,0.02l-0.01,0.01h-0.01c-0.11,0.09-0.22,0.18-0.32,0.27    c-0.09,0.09-0.2,0.16-0.3,0.26c-0.26,0.21-0.51,0.43-0.77,0.65c-0.47,0.39-0.92,0.78-1.38,1.18c-0.72,0.62-1.44,1.25-2.16,1.88    c-2.05,1.8-4.06,3.64-6.04,5.52c-0.85,0.8-1.71,1.61-2.55,2.43c-0.82,0.78-1.62,1.58-2.43,2.38c-0.54,0.54-1.09,1.09-1.62,1.63    c-0.38,0.37-0.75,0.75-1.11,1.13c-0.82,0.84-1.64,1.68-2.43,2.53c-0.07,0.06-0.13,0.13-0.19,0.19c-1.8,1.9-3.57,3.83-5.31,5.79    c-0.65,0.73-1.3,1.47-1.94,2.21c-0.4,0.46-0.8,0.92-1.19,1.38c-1.19,1.38-2.36,2.78-3.51,4.19c-0.58,0.71-1.17,1.42-1.74,2.14    c-0.98,1.23-1.96,2.47-2.92,3.72c-0.7,0.92-1.39,1.83-2.08,2.76c-0.69,0.92-1.37,1.85-2.04,2.78c-0.61,0.82-1.2,1.65-1.78,2.49    c-0.4,0.57-0.81,1.13-1.2,1.71c-2.62,3.75-5.13,7.59-7.53,11.49c-0.5,0.81-0.99,1.62-1.48,2.43c-0.11,0.17-0.21,0.34-0.31,0.51    c-0.41,0.68-0.82,1.37-1.22,2.06c-0.11,0.18-0.21,0.36-0.31,0.54c-0.34,0.58-0.68,1.17-1,1.75c-0.53,0.92-1.05,1.84-1.55,2.77    c-0.34,0.61-0.68,1.21-1,1.83c-0.16,0.3-0.33,0.59-0.48,0.89c-0.51,0.95-1.02,1.9-1.51,2.86c-0.2,0.39-0.4,0.78-0.61,1.17    c-0.46,0.89-0.9,1.77-1.34,2.66c-0.38,0.75-0.75,1.51-1.12,2.27c-0.28,0.56-0.55,1.13-0.82,1.69c-0.25,0.51-0.5,1.03-0.74,1.55    c-0.09,0.19-0.18,0.38-0.26,0.57c-0.52,1.12-1.03,2.24-1.54,3.36c-0.26,0.56-0.5,1.13-0.75,1.69c-0.26,0.56-0.5,1.13-0.74,1.69    c-2.66-11.71-7.48-22.41-13.96-31.75c-10.39-14.98-25.04-26.46-41.85-33.04c-2.66-1.04-5.37-1.96-8.13-2.75    c-0.72-0.21-1.44-0.4-2.17-0.59c-9.9-2.57-20.34-3.51-30.96-2.55h-0.01c-3.22,0.29-6.46,0.75-9.71,1.39    c-6.63,1.31-12.93,3.32-18.88,5.92c-0.17,0.07-0.33,0.14-0.51,0.22c-6.33,2.81-12.23,6.3-17.64,10.37v0.01    c-0.14,0.09-0.27,0.19-0.41,0.3c2.02-5.58,4.23-11.08,6.59-16.53c3.48-8.05,7.27-15.96,11.22-23.79c0.09-0.18,0.19-0.37,0.28-0.55    c7.62,4.82,16.23,8.07,25.32,9.42c0.01,0.01,0.02,0.01,0.03,0.01c7.26,1.09,14.82,0.96,22.43-0.55    c13.64-2.71,25.45-9.46,34.41-18.77c-11.92,5.02-25.42,6.57-39.03,3.68c-12.15-2.59-22.8-8.37-31.24-16.3    c1.48-2.67,3-5.34,4.54-8.02c10.23-17.84,21.48-35.79,32.97-53.12c2.15-3.25,4.31-6.48,6.48-9.68c0.45-0.66,1.27-0.71,2.04-0.51    c1.65,0.46,3.26,1.06,4.8,1.75c9.71,4.33,16.84,12.36,17.31,11.95c0.42-0.38-1.48-9.66-9-16.45c-2.14-1.93-4.74-3.67-7.87-4.93    c-0.74-0.3-0.71-1.44-0.26-2.09c1.9-2.74,3.79-5.45,5.69-8.15c0.39-0.57,0.79-1.13,1.19-1.7c1.99-2.83,3.96-5.62,5.93-8.38    c0.57-0.81,1.74-0.9,2.43-0.18c1.08,1.13,2.23,2.46,3.41,3.92c0.33,0.42,0.68,0.85,1.03,1.29c0.34,0.44,0.68,0.89,1.03,1.34    c0.35,0.46,0.7,0.92,1.05,1.4c0.16,0.21,0.3,0.41,0.46,0.62c1.43,1.95,2.87,4.01,4.3,6.1c0.4,0.57,0.78,1.16,1.17,1.73    c0.13,0.19,0.26,0.39,0.39,0.57c0.34,0.51,0.69,1.03,1.03,1.55c0.11,0.16,0.22,0.32,0.32,0.48c0.23,0.35,0.47,0.7,0.69,1.04    c0.33,0.51,0.66,1.01,0.99,1.51c0.33,0.5,0.65,0.99,0.96,1.48c0.83,1.28,1.63,2.53,2.38,3.71c0.35,0.55,0.69,1.09,1.03,1.61    c0.48,0.77,0.95,1.5,1.39,2.19c0.2,0.33,0.4,0.64,0.59,0.94c0.28,0.43,0.54,0.85,0.79,1.23c0.09,0.15,0.19,0.29,0.27,0.42    c0.26,0.43,0.52,0.82,0.75,1.17c0.52,0.79,0.94,1.41,1.25,1.85c0.21,0.29,0.37,0.48,0.47,0.58c0.05,0.05,0.09,0.08,0.12,0.08h0.01    c0.25-0.08,0.3-2.79-0.35-7.22c-0.03-0.2-0.06-0.41-0.09-0.63c-0.12-0.75-0.25-1.55-0.4-2.38c-0.02-0.13-0.05-0.26-0.08-0.4    c-0.09-0.5-0.19-1.03-0.31-1.55c-0.06-0.29-0.12-0.58-0.19-0.89c-0.16-0.75-0.34-1.52-0.54-2.32c-0.08-0.31-0.16-0.62-0.23-0.93    c-0.03-0.13-0.06-0.26-0.1-0.39c-0.12-0.43-0.23-0.88-0.36-1.33c-0.09-0.31-0.17-0.63-0.27-0.95c-0.09-0.33-0.18-0.64-0.28-0.97    c-0.19-0.65-0.4-1.31-0.61-1.98c-0.14-0.43-0.28-0.85-0.43-1.29c-0.16-0.5-0.33-0.99-0.51-1.49c-0.19-0.57-0.4-1.13-0.62-1.7    c-0.14-0.39-0.29-0.77-0.44-1.16c-0.17-0.45-0.35-0.9-0.54-1.35c-0.18-0.45-0.37-0.9-0.56-1.36c-0.38-0.92-0.78-1.83-1.21-2.77    c-0.19-0.43-0.4-0.86-0.61-1.3c-0.68-1.44-1.41-2.9-2.2-4.37c-0.3-0.55-0.6-1.1-0.91-1.66c-0.33-0.58-0.66-1.17-1.01-1.76    c-0.02-0.04-0.04-0.08-0.06-0.12c-1.44-2.59-2.96-5.13-4.58-7.6c-0.36-0.55-0.35-1.27,0.04-1.8c6.49-8.85,12.75-17.24,18.65-25    c21.34-28.07,37.94-48.15,42.44-53.53c0.64-0.75,1.79-0.75,2.44,0c1.22,1.46,3.32,4,6.17,7.49c2.64,3.23,5.92,7.27,9.73,12.02    c0.54,0.67,0.44,1.62-0.21,2.19c-7.75,6.68-14.33,14.96-19.19,24.68c-5.45,10.88-8.16,22.44-8.42,33.86    c0.23-0.78,0.46-1.56,0.71-2.35c6.28-19.72,19.5-35.28,36.11-44.88c0.68-0.4,1.54-0.22,2.02,0.4c2.53,3.23,5.2,6.64,7.96,10.22    c2.85,3.72,5.83,7.6,8.91,11.65c0.61,0.81,0.33,1.97-0.59,2.4c-14.96,7.17-28.49,17.88-39.23,31.99c-0.44,0.57-0.88,1.16-1.3,1.74    c-0.26,0.36-0.53,0.72-0.78,1.08c-0.26,0.37-0.53,0.74-0.78,1.11c-0.4,0.57-0.78,1.14-1.17,1.72c-1.08,1.62-2.11,3.25-3.08,4.91    c-0.29,0.48-0.57,0.96-0.85,1.45c-0.31,0.55-0.62,1.1-0.92,1.65c-0.3,0.55-0.6,1.1-0.89,1.66c-0.23,0.43-0.45,0.86-0.67,1.29    c-0.34,0.67-0.67,1.34-0.99,2c-2.03,4.19-3.76,8.43-5.2,12.76c-1.3,3.87-2.37,7.81-3.21,11.77c0.5-0.99,1.03-1.97,1.55-2.98    c0.89-1.63,1.81-3.23,2.74-4.79c2.12-3.48,4.4-6.8,6.84-9.95c0.46-0.59,0.92-1.18,1.39-1.76c0.3-0.38,0.61-0.75,0.92-1.13    c0.34-0.42,0.69-0.83,1.04-1.24c0.01-0.02,0.02-0.02,0.03-0.03c0.4-0.48,0.82-0.96,1.24-1.44c0.05-0.07,0.12-0.13,0.17-0.19    c0.4-0.45,0.79-0.89,1.2-1.32c0.45-0.5,0.91-0.99,1.38-1.47c0.27-0.29,0.55-0.57,0.83-0.86c0.93-0.98,1.9-1.93,2.88-2.85    c1.32-1.26,2.67-2.48,4.05-3.66c0.36-0.32,0.71-0.62,1.08-0.92c0.24-0.2,0.48-0.4,0.72-0.6c0.55-0.46,1.1-0.91,1.66-1.34    c0.48-0.38,0.96-0.76,1.45-1.13c0.56-0.43,1.12-0.85,1.69-1.26c0.45-0.33,0.91-0.66,1.37-0.98c0.44-0.32,0.88-0.62,1.32-0.92    c0.32-0.22,0.63-0.44,0.96-0.64c0.08-0.05,0.16-0.12,0.25-0.16c0.25-0.16,0.49-0.33,0.74-0.49c0.37-0.25,0.73-0.48,1.1-0.71    c0.32-0.21,0.64-0.41,0.96-0.61c0.59-0.37,1.18-0.74,1.78-1.1c0.63-0.37,1.25-0.74,1.89-1.1c0.68-0.39,1.36-0.76,2.04-1.13    c0.68-0.37,1.37-0.74,2.07-1.09c0.6-0.31,1.2-0.61,1.79-0.9c0.67-0.33,1.34-0.65,2.02-0.96c0.24-0.12,0.48-0.23,0.72-0.33    c2.66-1.22,5.38-2.33,8.13-3.32c0.23-0.09,0.47-0.16,0.69-0.24c0.43-0.16,0.85-0.3,1.27-0.44c0.23-0.09,0.46-0.16,0.69-0.23    c0.09-0.04,0.18-0.06,0.26-0.09c0.54-0.19,1.08-0.37,1.62-0.53c0.09-0.03,0.19-0.06,0.29-0.09c0.65-0.2,1.32-0.4,1.98-0.59    c0.6-0.18,1.2-0.34,1.79-0.5c0.9-0.25,1.8-0.48,2.71-0.7c0.75-0.19,1.51-0.36,2.27-0.53c0.61-0.14,1.24,0.1,1.62,0.61    c1.95,2.65,3.91,5.34,5.9,8.08c8.21,11.3,16.69,23.32,25.13,35.74c0.17,0.26,0.26,0.55,0.27,0.84c0.03,0.64-0.33,1.28-0.97,1.53    c-4.16,1.65-8.22,3.71-12.13,6.2c-9.17,5.83-16.52,13.42-21.94,22.05c0.52-0.5,1.07-1,1.62-1.49    c11.62-10.25,25.66-16.04,39.99-17.45c0.58-0.05,1.16,0.23,1.48,0.71c1.73,2.62,3.46,5.24,5.18,7.88    c0.54,0.85,0.18,1.96-0.76,2.35c-3.91,1.58-7.71,3.56-11.41,5.91c-5.74,3.67-10.78,8.01-15.08,12.87    c-2.57,2.9-4.85,5.96-6.87,9.17c-0.02,0.02-0.03,0.03-0.04,0.04c-0.85,1.35,0.63,2.95,2.07,2.24c12.83-6.28,27.41-9.29,42.48-8.16    c1.53,0.12,3.07,0.26,4.61,0.47c0.48,0.06,0.9,0.34,1.16,0.75c1.05,1.73,2.11,3.46,3.14,5.2    C517.8,228.81,517.88,228.92,517.95,229.05z"
   class="st1" />
		<path
   id="path160"
   d="M569.99,382.57c-0.92,11.78-3.46,23.22-6.75,34.77c-0.08,0.27-0.16,0.54-0.24,0.81    c-0.16,0.56-0.31,1.11-0.48,1.66c-0.15,0.51-0.31,1.02-0.47,1.52c-0.03,0.11-0.07,0.21-0.1,0.32c-0.32,0.95-0.64,1.89-0.99,2.81    c-0.03,0.08-0.06,0.16-0.09,0.24v0.01c-0.23,0.61-0.47,1.2-0.71,1.79c-0.3,0.72-0.61,1.44-0.94,2.16    c-2.7,6.01-6.2,11.59-10.36,16.6c-0.52,0.74-1.04,1.48-1.57,2.21c-0.05,0.06-0.09,0.12-0.14,0.18c-0.18-1.2-0.4-2.42-0.64-3.63    c-1.49-7.52-3.87-14.63-7-21.26c-9.38-19.89-25.56-35.4-45.02-44.18c-16.73-7.57-35.9-10.18-55.29-6.32    c-10.98,2.18-21.11,6.24-30.1,11.78c0-0.01,0.01-0.02,0.01-0.02c0.36-0.75,0.71-1.51,1.07-2.26c1.49-3.13,3.04-6.22,4.67-9.27    c0.32-0.61,0.64-1.22,0.98-1.83c0.16-0.31,0.33-0.61,0.5-0.92c0.51-0.92,1.01-1.84,1.52-2.75c0.09-0.17,0.19-0.34,0.28-0.51    c0.59-1.04,1.19-2.07,1.79-3.1c0.65-1.11,1.31-2.22,1.98-3.32c0.67-1.1,1.34-2.2,2.03-3.29c0-0.01,0-0.01,0-0.01    c0.69-1.09,1.38-2.18,2.08-3.25c0.7-1.08,1.41-2.15,2.12-3.22c0.67-0.99,1.34-1.98,2.01-2.96c0.17-0.25,0.34-0.5,0.52-0.75    c0.57-0.83,1.17-1.66,1.76-2.48c0.87-1.23,1.76-2.44,2.65-3.64c0.71-0.95,1.41-1.89,2.13-2.83c0.05-0.06,0.09-0.12,0.14-0.18    c0.71-0.92,1.41-1.83,2.13-2.73c0.4-0.5,0.8-1.01,1.2-1.51c0.39-0.5,0.79-0.99,1.2-1.49v-0.01c1.45-1.78,2.92-3.53,4.41-5.26    c0.74-0.86,1.48-1.71,2.23-2.56c0.02-0.02,0.03-0.04,0.05-0.06c0.75-0.85,1.51-1.69,2.28-2.52c0.73-0.81,1.47-1.61,2.21-2.4    c1.6-1.71,3.22-3.4,4.87-5.06c0.81-0.82,1.62-1.62,2.43-2.42c0.57-0.56,1.13-1.12,1.71-1.66c0.46-0.44,0.92-0.89,1.38-1.33    c0.19-0.19,0.4-0.38,0.59-0.56c0.57-0.54,1.13-1.08,1.71-1.6c1.1-1.02,2.2-2.03,3.31-3.02c1.07-0.96,2.15-1.9,3.24-2.84    c1.92-1.66,3.85-3.29,5.82-4.88c0.61-0.51,1.24-1,1.86-1.5c3.36-2.67,6.77-5.26,10.25-7.75l1.18-0.84c3-2.13,6.05-4.19,9.14-6.18    c0.66-0.43,1.32-0.85,1.98-1.27c1.58-1,3.17-1.98,4.78-2.94c0.53-0.32,1.06-0.63,1.59-0.95c4.3-2.53,8.68-4.95,13.13-7.22    c4.51-2.31,9.1-4.49,13.76-6.52c5.35,9.99,10.28,19.86,14.64,29.51c1.1,2.42,2.17,4.83,3.2,7.22c0.58,1.33,1.13,2.66,1.68,3.98    c0.19,0.45,0.37,0.89,0.57,1.34c0.94,2.29,1.83,4.56,2.7,6.8c1.36,3.53,2.63,7.03,3.79,10.46c-4.23,13.95-13.12,26.58-26.16,35.34    c-10.6,7.12-22.55,10.74-34.44,11.12c23.15,9.07,49.51,4.14,67.81-12.37c0.45,5.5,0.67,11.03,0.81,16.6    C570.42,374.49,570.3,378.55,569.99,382.57z"
   class="st1" />
		<linearGradient
   y2="89.0709"
   x2="443.8253"
   y1="177.8643"
   x1="302.4292"
   gradientUnits="userSpaceOnUse"
   id="SVGID_1_">
			<stop
   id="stop162"
   style="stop-color:#00C853;stop-opacity:0"
   offset="0" />
			<stop
   id="stop164"
   style="stop-color:#1BAC4E;stop-opacity:0.3814"
   offset="0.3205" />
			<stop
   id="stop166"
   style="stop-color:#2F984A;stop-opacity:0.7508"
   offset="0.631" />
			<stop
   id="stop168"
   style="stop-color:#369149"
   offset="0.8404" />
		</linearGradient>
		<path
   id="path171"
   d="M344.36,133.83c0,0,23.82,50.63,9.92,75.44c0,0-15.99-34.19-39.99-49.69c1.99-2.83,3.96-5.63,5.92-8.38    c0.58-0.81,1.74-0.9,2.44-0.18c9.94,10.41,25.17,37.04,25.87,36.83c0.69-0.22-0.21-20.62-12.85-42.16    c-0.03-0.04-0.04-0.08-0.06-0.12c-1.44-2.59-2.96-5.13-4.58-7.6c-0.36-0.55-0.35-1.27,0.04-1.81c6.49-8.85,12.76-17.23,18.65-25    c21.33-28.07,37.94-48.14,42.44-53.53c0.64-0.76,1.79-0.76,2.44,0c1.22,1.46,3.32,4,6.17,7.49L344.36,133.83z"
   class="st2" />
		<linearGradient
   y2="111.9739"
   x2="465.5514"
   y1="189.5655"
   x1="341.9932"
   gradientUnits="userSpaceOnUse"
   id="SVGID_2_">
			<stop
   id="stop173"
   style="stop-color:#00C853;stop-opacity:0"
   offset="0" />
			<stop
   id="stop175"
   style="stop-color:#1BAC4E;stop-opacity:0.3814"
   offset="0.3205" />
			<stop
   id="stop177"
   style="stop-color:#2F984A;stop-opacity:0.7508"
   offset="0.631" />
			<stop
   id="stop179"
   style="stop-color:#369149"
   offset="0.8404" />
		</linearGradient>
		<path
   id="path182"
   d="M459.81,141.82c-46.93,17.62-88.16,62.49-88.16,62.49c4.71-63.95,42.28-93.48,57.82-103.04    c2.85,3.72,5.83,7.6,8.91,11.65c0.6,0.81,0.32,1.96-0.59,2.4c-14.96,7.17-28.49,17.89-39.23,31.99    c-4.53,5.92-8.33,12.17-11.45,18.62c-2.03,4.18-3.76,8.42-5.21,12.76c-1.29,3.87-2.37,7.81-3.21,11.77    c0.5-0.99,1.03-1.97,1.55-2.97c0.88-1.63,1.81-3.23,2.74-4.8c2.12-3.47,4.4-6.8,6.83-9.95c15.86-20.58,38.18-34.22,62.46-39.59    c0.6-0.14,1.24,0.1,1.62,0.6C455.86,136.39,457.82,139.09,459.81,141.82z"
   class="st3" />
		<linearGradient
   y2="222.3127"
   x2="340.9147"
   y1="336.2818"
   x1="448.8854"
   gradientUnits="userSpaceOnUse"
   id="SVGID_3_">
			<stop
   id="stop184"
   style="stop-color:#00C853;stop-opacity:0"
   offset="0" />
			<stop
   id="stop186"
   style="stop-color:#1BAC4E;stop-opacity:0.3814"
   offset="0.3205" />
			<stop
   id="stop188"
   style="stop-color:#2F984A;stop-opacity:0.7508"
   offset="0.631" />
			<stop
   id="stop190"
   style="stop-color:#369149"
   offset="0.8404" />
		</linearGradient>
		<path
   id="path193"
   d="M473.58,249.59c-1.35,0.79-2.69,1.6-4.02,2.42c-0.55,0.33-1.1,0.68-1.65,1.03c-0.63,0.38-1.25,0.78-1.87,1.18    c-1.87,1.19-3.73,2.4-5.56,3.64c-0.57,0.39-1.15,0.78-1.72,1.17c-0.87,0.6-1.73,1.2-2.59,1.8c-0.68,0.48-1.37,0.97-2.04,1.46    c-0.7,0.5-1.39,1.01-2.08,1.52c-0.69,0.5-1.38,1.02-2.07,1.54c-0.69,0.51-1.37,1.03-2.05,1.56c-0.68,0.52-1.36,1.04-2.04,1.58    c-1.01,0.79-2.02,1.6-3.02,2.42c-0.99,0.8-1.98,1.61-2.96,2.43c-0.01,0.01-0.01,0.01-0.02,0.02l-0.01,0.01h-0.01    c0,0.01-0.01,0.01-0.01,0.02c-0.21,0.17-0.4,0.33-0.61,0.51c-0.26,0.21-0.51,0.43-0.77,0.65c-0.47,0.39-0.92,0.78-1.38,1.18    c-0.72,0.62-1.44,1.25-2.16,1.88c-2.05,1.8-4.06,3.64-6.04,5.52c-0.85,0.8-1.71,1.61-2.55,2.43c-0.82,0.78-1.63,1.58-2.43,2.38    c-0.54,0.54-1.09,1.09-1.62,1.63c-0.38,0.37-0.75,0.75-1.11,1.13c-0.82,0.84-1.64,1.68-2.43,2.53c-0.07,0.06-0.13,0.13-0.19,0.19    c-1.8,1.9-3.57,3.83-5.31,5.79c-0.66,0.73-1.31,1.47-1.94,2.21c-0.4,0.46-0.8,0.92-1.19,1.38c-1.19,1.38-2.36,2.78-3.51,4.19    c-0.58,0.71-1.17,1.42-1.74,2.14c-0.98,1.23-1.96,2.47-2.92,3.72c-0.7,0.92-1.4,1.83-2.08,2.76c-0.69,0.92-1.37,1.85-2.04,2.78    c-0.61,0.82-1.2,1.65-1.78,2.49c-0.41,0.57-0.82,1.13-1.2,1.71c-2.62,3.75-5.13,7.59-7.53,11.49c-0.5,0.81-0.99,1.62-1.48,2.43    c-0.11,0.17-0.21,0.34-0.31,0.51c-0.41,0.68-0.82,1.37-1.22,2.06c-0.11,0.18-0.21,0.36-0.31,0.54c-0.34,0.58-0.68,1.17-1,1.75    c-0.53,0.92-1.05,1.84-1.55,2.77c-0.34,0.61-0.68,1.21-1,1.83c-0.16,0.3-0.33,0.59-0.48,0.89c-0.51,0.95-1.02,1.9-1.51,2.86    c-0.2,0.39-0.4,0.78-0.61,1.17c-0.46,0.89-0.9,1.77-1.34,2.66c-0.38,0.75-0.75,1.51-1.12,2.27c-0.28,0.56-0.55,1.13-0.82,1.69    c-0.25,0.51-0.5,1.03-0.74,1.55c-0.09,0.19-0.18,0.38-0.26,0.57c-0.52,1.11-1.03,2.24-1.54,3.36c-0.26,0.56-0.5,1.13-0.75,1.69    c-0.26,0.56-0.5,1.13-0.74,1.69c-2.66-11.71-7.48-22.41-13.96-31.75c9.45-12.74,20.01-24.7,31.54-35.59    c-11.25-6.34-31.31-20.91-42.05-48.47c-1.59-4.09-2.98-8.45-4.1-13.13c-1.5-6.22-2.52-12.97-2.94-20.3    c-0.09-1.65,2.13-2.24,2.84-0.76c0.82,1.72,1.83,3.66,3.03,5.76c2.73,4.75,6.52,10.32,11.61,15.89    c10.63,11.64,26.94,23.26,51.22,27.37c1.34,0.23,2.27-1.31,1.42-2.4c-4.96-6.28-15.1-21.55-11.03-37.12    c0.33-1.24,1.98-1.51,2.68-0.45c5.35,7.95,23.15,31.12,48.95,31.02c0.67-0.29,1.34-0.57,2.01-0.82c0.02-0.01,0.04-0.02,0.06-0.02    c0.02-0.02,0.02-0.05,0.03-0.08c0,0,0,0,0.01-0.01c0.22-0.5,0.17-1.1-0.24-1.57c-3.41-3.82-9.42-12.26-8.89-23.79    c0.06-1.44,1.91-1.99,2.71-0.81c2.82,4.11,8.5,10.99,17.8,16.61c2.4,1.45,5.05,2.82,7.95,4.03    C472,249.84,472.8,249.7,473.58,249.59z"
   class="st4" />
		<linearGradient
   y2="312.9628"
   x2="463.6554"
   y1="383.51"
   x1="530.4896"
   gradientUnits="userSpaceOnUse"
   id="SVGID_4_">
			<stop
   id="stop195"
   style="stop-color:#00C853;stop-opacity:0"
   offset="0" />
			<stop
   id="stop197"
   style="stop-color:#1BAC4E;stop-opacity:0.3814"
   offset="0.3205" />
			<stop
   id="stop199"
   style="stop-color:#2F984A;stop-opacity:0.7508"
   offset="0.631" />
			<stop
   id="stop201"
   style="stop-color:#369149"
   offset="0.8404" />
		</linearGradient>
		<path
   id="path204"
   d="M545.18,342.29c0,0-35.81-22.71-71.32,3.1c-3.67,2.66-7.33,5.84-10.94,9.61c-0.44,0.46-0.88,0.93-1.32,1.41    c0,0,1.62,0.06,4.15,0.41h0.01c5.43,0.74,15.05,2.77,21.9,8.27h0.01c4.02,3.22,7.08,7.64,7.77,13.69c0,0-0.33-0.08-0.96-0.19    c-16.73-7.57-35.9-10.18-55.29-6.32c-10.98,2.18-21.11,6.24-30.1,11.78c0-0.01,0.01-0.02,0.01-0.02c0.36-0.75,0.71-1.51,1.07-2.26    c1.49-3.13,3.04-6.22,4.67-9.27c0.32-0.61,0.64-1.22,0.98-1.83c0.16-0.31,0.33-0.61,0.5-0.92c0.51-0.92,1.01-1.84,1.52-2.75    c0.09-0.17,0.19-0.34,0.28-0.51c0.59-1.04,1.19-2.07,1.79-3.1c0.65-1.11,1.31-2.22,1.98-3.32c0.67-1.1,1.34-2.2,2.03-3.29    c0-0.01,0-0.01,0-0.01c0.69-1.09,1.38-2.18,2.08-3.25c0.7-1.08,1.41-2.15,2.12-3.22c0.67-0.99,1.34-1.98,2.01-2.96    c0.17-0.25,0.34-0.5,0.52-0.75c0.57-0.83,1.17-1.66,1.76-2.48c0.87-1.23,1.76-2.44,2.65-3.64c0.71-0.95,1.41-1.89,2.13-2.83    c0.05-0.06,0.09-0.12,0.14-0.18c0.71-0.92,1.41-1.83,2.13-2.73c0.4-0.5,0.8-1.01,1.2-1.51c0.39-0.5,0.79-0.99,1.2-1.49v-0.01    c1.44-1.78,2.91-3.53,4.41-5.26c0.74-0.86,1.48-1.71,2.23-2.56c0.02-0.02,0.03-0.04,0.05-0.06c0.75-0.85,1.51-1.69,2.28-2.52    c0.73-0.81,1.47-1.61,2.21-2.4c1.6-1.71,3.22-3.4,4.87-5.06c0.81-0.82,1.62-1.62,2.43-2.42c0.57-0.56,1.13-1.12,1.71-1.66    c0.46-0.44,0.92-0.89,1.38-1.33c0.19-0.19,0.4-0.38,0.59-0.56c0.57-0.54,1.13-1.08,1.71-1.6c1.1-1.02,2.2-2.03,3.31-3.02    c1.07-0.96,2.15-1.9,3.24-2.84c1.92-1.66,3.85-3.29,5.82-4.88c0.61-0.51,1.24-1,1.86-1.5c3.36-2.67,6.77-5.26,10.25-7.75    l1.18-0.84c3-2.13,6.05-4.19,9.14-6.18c0.66-0.43,1.32-0.85,1.98-1.27c1.58-1,3.17-1.98,4.78-2.94c0.53-0.32,1.06-0.63,1.59-0.95    c4.3-2.53,8.68-4.95,13.13-7.22c4.51-2.31,9.1-4.49,13.76-6.52c5.35,9.99,10.28,19.86,14.64,29.51    C550.58,305.62,548.64,324.38,545.18,342.29z"
   class="st5" />
		<linearGradient
   y2="230.8968"
   x2="345.5639"
   y1="318.4298"
   x1="206.1748"
   gradientUnits="userSpaceOnUse"
   id="SVGID_5_">
			<stop
   id="stop206"
   style="stop-color:#00C853;stop-opacity:0"
   offset="0" />
			<stop
   id="stop208"
   style="stop-color:#1BAC4E;stop-opacity:0.3814"
   offset="0.3205" />
			<stop
   id="stop210"
   style="stop-color:#2F984A;stop-opacity:0.7508"
   offset="0.631" />
			<stop
   id="stop212"
   style="stop-color:#369149"
   offset="0.8404" />
		</linearGradient>
		<path
   id="path215"
   d="M333.97,256.42c-0.16,0.59-6.42,23.68-29.51,41.82c-9.9-2.57-20.34-3.51-30.96-2.55h-0.01    c-3.22,0.29-6.46,0.75-9.71,1.39c-6.63,1.31-12.93,3.32-18.88,5.92c-0.17,0.07-0.33,0.14-0.51,0.22    c-6.33,2.81-12.23,6.3-17.64,10.37v0.01c-0.14,0.09-0.27,0.19-0.41,0.3c2.02-5.58,4.23-11.08,6.59-16.53    c3.48-8.05,7.27-15.96,11.22-23.79c0.09-0.18,0.19-0.37,0.28-0.55c7.62,4.82,16.23,8.07,25.32,9.42c0.01,0.01,0.02,0.01,0.03,0.01    c7.26,1.09,14.82,0.96,22.43-0.55c13.64-2.71,25.45-9.46,34.41-18.77c-11.92,5.02-25.42,6.57-39.03,3.68    c-12.15-2.59-22.8-8.37-31.24-16.3c1.48-2.67,3-5.34,4.54-8.02C270.7,249.83,300.01,268.26,333.97,256.42z"
   class="st6" />
	</g>
	<g
   id="g231">
		<path
   id="path219"
   d="M563.89,235.27c0,2.9-1.76,5.39-4.27,6.45c-10.17,4.28-20.99,6.73-31.12,11.13    c-8.65,3.75-17.08,8-25.25,12.71c-16.25,9.37-31.43,20.57-45.19,33.31c-15.42,14.28-29.04,30.51-40.42,48.17    c-5.7,8.83-10.83,18.03-15.35,27.52c-2.25,4.74-4.35,9.56-6.29,14.44c-1.62,4.1-2.59,8.87-6.38,11.58    c-1.87,1.34-4.14,2.06-6.44,2.06c-5.1,0-9.59-3.59-10.8-8.53c-1.96-8.04,5.18-18.62,8.45-25.72c3.84-8.34,8.14-16.47,12.88-24.34    c9.4-15.62,20.53-30.2,33.09-43.4c30.31-31.87,69.38-56.14,111.87-67.83c3.08-0.85,6.16-1.73,9.26-2.54    c3.38-0.89,7.68-2.81,11.17-1.65C561.92,229.56,563.89,232.29,563.89,235.27z"
   class="st7" />
		<circle
   id="circle221"
   r="5.17"
   cy="221.31"
   cx="542.01"
   class="st7" />
		<circle
   id="circle223"
   r="5.17"
   cy="217.7"
   cx="556.36"
   class="st7" />
		<circle
   id="circle225"
   r="5.17"
   cy="254.97"
   cx="553.8"
   class="st7" />
		<circle
   id="circle227"
   r="5.17"
   cy="248.84"
   cx="567.27"
   class="st7" />
		<circle
   id="circle229"
   r="5.17"
   cy="229.82"
   cx="574.36"
   class="st7" />
	</g>
	<path
   id="path233"
   d="M363.75,379.47c0.03,0.38-0.2,0.67-0.5,0.78c-1.34-4.24-5.93-14.06-20.51-18.92   c-0.46-0.15-0.85,0.39-0.55,0.77c1.09,1.37,2.15,3.3,2.72,4.11c2.11,3,4.26,5.97,6.38,8.97c0.91,1.3,1.71,2.6,2.47,4   c0.17,0.29,0.49,1.13,0.87,2c-9.18-4.33-21.35-5.38-27.94-5.62c-1.22-0.04-1.65,1.59-0.58,2.17l22.35,12.01   c0.5,0.27,0.22,1.03-0.34,0.91c-12.82-2.69-23.22,1-27.21,2.78c-0.48,0.21-0.33,0.91,0.19,0.94c13.81,0.68,23.06,3.64,28.14,5.83   c0.44,0.19,0.38,0.83-0.09,0.93c-19.45,4.23-36.93,13.74-50.87,26.95c-4.58,4.35-8.79,9.1-12.56,14.2   c-3.23,4.36-6.13,8.99-8.67,13.81c-1.15,2.17-2.22,4.37-3.22,6.61c-1.51,3.45-6.05,4.24-8.61,1.48c-1.33-1.44-2.62-2.9-3.9-4.37   c-1.3-1.51-2.58-3.04-3.83-4.58c-0.42-0.51-0.84-1.04-1.25-1.56c-4.3-5.44-8.3-11.12-11.96-17.01c-6.12-9.84-4.65-22.73,3.75-30.7   c0.06-0.05,0.12-0.11,0.18-0.17c6.56-6.11,15.14-8.7,23.4-7.83c0.92,0.1,1.23-1.19,0.35-1.51c-6.92-2.5-14.78-2.45-22.06,0.73   c-6.11,2.68-10.87,7.17-13.93,12.57c-1.3,2.29-4.66,2.08-5.67-0.35c-1.24-3.02-2.4-6.07-3.47-9.15c-0.77-2.18-1.5-4.37-2.16-6.6   c-0.96-3.09-1.83-6.21-2.6-9.35c-0.31-1.25-0.59-2.51-0.86-3.77c-1.7-7.78,0.03-15.99,5.06-22.19c0.03-0.04,0.07-0.09,0.1-0.13   c5.69-6.95,13.87-10.66,22.2-10.89c0.92-0.03,1.06-1.35,0.15-1.55c-7.21-1.57-15.01-0.46-21.81,3.68   c-2.48,1.52-4.66,3.33-6.52,5.38c-0.65,0.71-1.84,0.25-1.84-0.7c-0.04-6.05,0.01-13.68,2.62-18.84c0.49-0.71,0.97-1.41,1.46-2.12   c12.73-14.25,30.52-24.08,51-26.49c14.56-1.71,29.5,0.71,42.86,6.75c24.8,11.19,42.57,34.56,46.74,61.47   C363.48,376.36,363.64,377.9,363.75,379.47z"
   class="st8" />
	<path
   id="path235"
   d="M420.45,501.36c-0.29,1.88-0.63,3.78-1.13,5.62c-0.72,2.76-1.78,5.41-3.44,7.72   c-3.83,5.37-10.46,8.18-17.01,8.9c-6.93,0.74-13.91-0.57-20.76-1.77c-0.72-0.12-1.41-0.48-1.85-1.07c-1.18-1.53,0.06-3.06,1.1-4.27   c4.58-5.34,7.32-12.29,7.35-19.32c0.03-5.69-1.74-11.39-5.02-16.02c-0.43-0.6-1.39-0.14-1.17,0.57c3.05,9.82,0.93,21.2-5.68,29.13   c-2.76,3.3-6.35,6.08-10.56,7.04c-5.38,1.21-10.91-0.68-16.1-2.54c-6.09-2.19-12.18-4.37-18.28-6.56   c-3.47-1.25-7.12-2.62-9.37-5.53c-2.45-3.18-2.72-7.56-2.08-11.53c0.78-4.87,2.84-9.5,5.82-13.42c1.51-1.99,3.36-3.71,5.39-5.15   c1.02-0.71,2.09-1.35,3.19-1.95c0.33-0.18,0.69-0.41,1.04-0.67c0.65-0.48,0.34-1.53-0.47-1.54c-4.57-0.04-9.43,4.45-12.42,7.14   c-3.94,3.55-6.9,8.14-8.38,13.23c-0.86,2.93-1.81,6.6-5.39,6.53c-0.74-0.01-1.48-0.22-2.16-0.53c-6.92-3.18-13.22-8.32-16.51-15.22   c-4.64-9.72-1.19-18.71,4.6-26.9c5.52-7.79,12.11-14.82,19.49-20.88c14.77-12.13,32.71-20.44,51.58-23.5   c1.99-0.31,3.98-0.58,5.97-0.78c0.69-0.07,1.61,0.12,1.96,0.58c-5.33,1.31-16.68,5.2-20.99,15.02c-0.33,0.74,0.45,1.49,1.16,1.11   c1.83-0.98,4.78-2.53,8.18-4.2l14.42-6.32c0.67-0.29,1.46-0.35,2.13-0.05c0.23,0.1,0.41,0.23,0.55,0.37   c-1.96,4.95-4.59,14.16-2.89,25.22c0.12,0.79,1.16,0.99,1.57,0.31c2.33-3.94,7.62-13.11,10.79-20.44c0.25-0.57,1.02-0.69,1.42-0.21   c5.25,6.3,10.4,14.78,12.65,18.62c0.4,0.69,1.47,0.48,1.57-0.31c1.47-11.95-5.49-21.45-9.63-25.95c0.08-0.16,0.2-0.3,0.36-0.41   c0.76-0.5,1.43,0.1,1.92,0.63c2.47,2.71,4.79,5.55,6.96,8.51c0.36,0.49,0.72,1,1.09,1.5C417.51,444.77,424.63,473.79,420.45,501.36   z"
   class="st8" />
	<path
   id="path237"
   d="M538.37,459.15c-0.31,1.27-0.77,2.49-1.46,3.64c-2.09,3.54-5.81,5.72-8.99,8.39c-1.43,1.21-3.59,0.36-3.85-1.5   c-1.14-8.08-5.34-15.73-11.5-21.08c-0.72-0.63-1.73,0.34-1.14,1.1c3.55,4.53,6,9.87,6.4,15.57c0.71,9.97-4.57,18.74-11.84,25.15   c-3.76,3.31-8,6.07-12.45,8.38c-1.49,0.77-11.86,6.35-11.24,2.65c1.02-5.89,1.78-11.42,0.33-17.35c-0.76-3.11-1.95-6.1-3.54-8.89   c-1.64-2.85-4.15-4.85-5.93-7.49c5.68,8.43,7.9,19.59,4.04,28.99c-3.32,8.08-10.67,13.97-18.69,17.43   c-8.01,3.46-16.77,4.8-25.4,6.1c-1.41,0.22-2.96,0.41-3.92-1.45c-0.49-0.96-0.57-2.08-0.34-3.14c6.79-30.51,0.04-63.64-17.49-89.45   c-0.09-0.13-0.15-0.25-0.18-0.36c5.11,0.19,18.43,1.35,28.19,8.02c0.32,0.22,0.74-0.01,0.72-0.39c-0.16-2.91-1.7-12.03-14.54-15.17   c-0.47-0.12-0.48-0.78-0.01-0.89c7.79-1.8,15.32-4.04,18.24-4.94c0.42-0.13,0.44-0.73,0.02-0.87c-10.9-3.8-24.73-1.71-31.15-0.38   c-0.46,0.09-0.74-0.47-0.41-0.79c6.54-6.24,16.56-12.64,19.81-14.65c0.36-0.22,0.25-0.79-0.17-0.85   c-12.73-1.71-27.38,8.55-32.24,12.29c0.22-1.65,2.7-3.59,3.72-4.59c1.75-1.76,3.7-3.31,5.74-4.71c3.91-2.72,8.15-4.95,12.44-7.04   c8.58-4.19,17.87-6.92,27.36-8.03c11.09-1.31,22.45-0.42,33.13,2.87c28.05,8.65,50.44,33.55,56.06,62.35   C538.79,451.72,539.21,455.62,538.37,459.15z"
   class="st8" />
</g>
<path
   id="path241"
   d="M-302.52,421.34c-0.6-0.49-1-1-1.08-1.49C-303.24,420.34-302.88,420.84-302.52,421.34z"
   class="st8" />
</svg>
